<?xml version="1.0" standalone="no"?>
<!DOCTYPE svg PUBLIC "-//W3C//DTD SVG 20010904//EN"
 "http://www.w3.org/TR/2001/REC-SVG-20010904/DTD/svg10.dtd">
<svg version="1.0" xmlns="http://www.w3.org/2000/svg"
 width="720.000000pt" height="720.000000pt" viewBox="0 0 720.000000 720.000000"
 preserveAspectRatio="xMidYMid meet">
<metadata>
Created by potrace 1.14, written by Peter Selinger 2001-2017
</metadata>
<g transform="translate(0.000000,720.000000) scale(0.100000,-0.100000)"
fill="#000000" stroke="none">
<path d="M3595 5080 l-2020 -1259 -3 -309 -2 -309 2024 -1171 c1114 -645 2028
-1172 2031 -1172 3 0 4 171 3 380 l-3 381 -1670 949 c-1344 765 -1670 954
-1670 970 0 16 347 230 1670 1032 l1670 1013 3 378 c1 207 -1 377 -5 377 -5 0
-917 -567 -2028 -1260z"/>
</g>
</svg>
